<svg width="62" height="48" viewBox="0 0 62 48" fill="none" xmlns="http://www.w3.org/2000/svg">
<g clip-path="url(#clip0_258_98)">
<path d="M18.7986 5.41461C25.8476 -1.61555 38.172 -1.84074 44.2545 5.62807C52.6898 15.9845 44.6861 34.6236 27.9329 27.5771C30.4241 27.7507 35.5167 27.7694 38.5333 24.5558C41.9111 20.9551 41.8712 15.2526 38.5497 11.6026C34.8294 7.51404 28.4959 7.39675 24.6254 11.2555L22.845 12.9984C19.6196 16.2167 15.4161 15.1916 12.1978 11.9662L18.7986 5.41461Z" fill="url(#paint0_linear_258_98)"/>
<path d="M18.7986 5.41461C25.8476 -1.61555 38.172 -1.84074 44.2545 5.62807C52.6898 15.9845 44.6861 34.6236 27.9329 27.5771C30.4241 27.7507 35.5167 27.7694 38.5333 24.5558C41.9111 20.9551 41.8712 15.2526 38.5497 11.6026C34.8294 7.51404 28.4959 7.39675 24.6254 11.2555L22.845 12.9984C19.6196 16.2167 15.4161 15.1916 12.1978 11.9662L18.7986 5.41461Z" fill="url(#paint1_linear_258_98)"/>
<path d="M38.172 24.9312L38.1321 24.9687C38.1462 24.9546 38.1602 24.9429 38.172 24.9312Z" fill="url(#paint2_linear_258_98)"/>
<path d="M0 24.1359L3.89626 20.249L18.7987 5.41459C23.1899 1.03511 29.2911 -0.588133 34.9467 0.544854C35.0757 0.570657 35.3408 0.645721 35.7184 0.763007C50.4379 5.3278 49.0797 32.9957 27.933 27.577C43.4547 27.9055 41.8713 15.2526 38.5497 11.6026C34.8294 7.51402 28.4959 7.39673 24.6255 11.2555L18.8667 16.9673C15.5639 20.2631 9.31959 24.9639 0 24.1335L0 24.1359Z" fill="url(#paint3_linear_258_98)"/>
<path d="M0 24.1359L3.89626 20.249L18.7987 5.41459C23.1899 1.03511 29.2911 -0.588133 34.9467 0.544854C35.0757 0.570657 35.3408 0.650412 35.7184 0.763007C52.9103 5.87435 47.1515 34.7292 27.933 27.577C42.9058 27.8937 41.5429 15.1916 38.5497 11.6026C35.0077 7.35685 28.4959 7.39673 24.6255 11.2555L18.8667 16.9673C15.5639 20.2631 9.31959 24.9639 0 24.1335L0 24.1359Z" fill="url(#paint4_linear_258_98)"/>
<path d="M0 24.1359L15.768 8.44064C15.768 8.44064 15.768 8.44064 15.7727 8.43829C22.0006 2.21038 34.7755 4.83994 38.8406 11.9991C34.8904 7.29123 28.3012 7.59618 24.6278 11.2579L15.5663 20.2655C8.70031 27.108 3.21834 27.3613 0 24.1359Z" fill="url(#paint5_linear_258_98)"/>
<path d="M12.7818 20.2818L21.8434 11.2742C24.0624 9.05982 27.0908 8.1661 29.9713 8.56722C28.015 8.86278 26.1314 9.75181 24.6231 11.2578L15.5615 20.2654C10.7668 25.0483 6.64538 26.6106 3.49976 26.0171C6.15981 25.5362 9.29136 23.7629 12.7795 20.2818H12.7818Z" fill="url(#paint6_linear_258_98)"/>
<path style="mix-blend-mode:color-burn" opacity="0.5" d="M37.4894 10.1202C31.8995 6.32249 23.0561 6.05273 18.3201 10.6551C18.3177 10.6574 18.3154 10.6574 18.3154 10.6574L10.4173 18.5179L6.69696 22.2195C6.05189 22.8599 5.34582 23.4416 4.56704 23.9108C2.8875 24.9171 1.19154 25.3276 -0.00244141 24.1336L15.7679 8.44068C15.7679 8.44068 15.7679 8.44068 15.7726 8.43834C21.4211 2.78982 32.4554 4.42714 37.4917 10.1226L37.4894 10.1202Z" fill="url(#paint7_linear_258_98)" fill-opacity="0.6"/>
<path style="mix-blend-mode:color-burn" opacity="0.5" d="M14.4966 9.7049L15.7656 8.44055C15.7656 8.44055 15.7656 8.44055 15.7703 8.43821C21.6698 2.55277 34.379 4.35663 38.8382 11.999C35.2821 7.38263 22.0874 1.90769 14.4966 9.70725V9.7049Z" fill="url(#paint8_linear_258_98)" fill-opacity="0.4"/>
<path d="M43.1542 42.5656C36.1053 49.5958 23.7809 49.821 17.6984 42.3522C9.26312 31.9958 17.2668 13.3566 34.02 20.4032C31.5288 20.2296 26.4362 20.2108 23.4196 23.4245C20.0418 27.0252 20.0816 32.7276 23.4032 36.3776C27.1235 40.4662 33.457 40.5835 37.3274 36.7247L39.1079 34.9819C42.3332 31.7635 46.5368 32.7886 49.7551 36.014L43.1542 42.5656Z" fill="url(#paint9_linear_258_98)"/>
<path d="M43.1542 42.5656C36.1053 49.5958 23.7809 49.821 17.6984 42.3522C9.26312 31.9958 17.2668 13.3566 34.02 20.4032C31.5288 20.2296 26.4362 20.2108 23.4196 23.4245C20.0418 27.0252 20.0816 32.7276 23.4032 36.3776C27.1235 40.4662 33.457 40.5835 37.3274 36.7247L39.1079 34.9819C42.3332 31.7635 46.5368 32.7886 49.7551 36.014L43.1542 42.5656Z" fill="url(#paint10_linear_258_98)"/>
<path d="M23.7809 23.0491L23.8208 23.0115C23.8067 23.0256 23.7927 23.0373 23.7809 23.0491Z" fill="url(#paint11_linear_258_98)"/>
<path d="M61.9529 23.8444L58.0566 27.7312L43.1542 42.5656C38.763 46.9451 32.6617 48.5684 27.0062 47.4354C26.8772 47.4096 26.6121 47.3345 26.2344 47.2172C11.515 42.6524 12.8732 14.9845 34.0199 20.4032C18.4982 20.0748 20.0816 32.7276 23.4031 36.3776C27.1235 40.4662 33.4569 40.5835 37.3274 36.7248L43.0862 31.0129C46.389 27.7172 52.6333 23.0163 61.9529 23.8467L61.9529 23.8444Z" fill="url(#paint12_linear_258_98)"/>
<path d="M61.9529 23.8444L58.0566 27.7312L43.1542 42.5656C38.763 46.9451 32.6617 48.5684 27.0062 47.4354C26.8772 47.4096 26.6121 47.3298 26.2344 47.2172C9.04258 42.1059 14.8013 13.251 34.0199 20.4032C19.0471 20.0865 20.41 32.7886 23.4031 36.3776C26.9452 40.6234 33.4569 40.5835 37.3274 36.7248L43.0862 31.0129C46.389 27.7172 52.6333 23.0163 61.9529 23.8467L61.9529 23.8444Z" fill="url(#paint13_linear_258_98)"/>
<path d="M61.9529 23.8443L46.1849 39.5396C46.1849 39.5396 46.1849 39.5396 46.1802 39.5419C39.9523 45.7698 27.1774 43.1403 23.1123 35.9811C27.0625 40.689 33.6516 40.384 37.3251 36.7224L46.3866 27.7148C53.2526 20.8723 58.7345 20.6189 61.9529 23.8443Z" fill="url(#paint14_linear_258_98)"/>
<path d="M49.1711 27.6984L40.1095 36.706C37.8905 38.9204 34.8621 39.8141 31.9816 39.413C33.9379 39.1174 35.8215 38.2284 37.3298 36.7225L46.3914 27.7148C51.1861 22.9319 55.3075 21.3696 58.4531 21.9631C55.7931 22.444 52.6615 24.2174 49.1734 27.6984L49.1711 27.6984Z" fill="url(#paint15_linear_258_98)"/>
<path style="mix-blend-mode:color-burn" opacity="0.5" d="M24.4635 37.86C30.0534 41.6577 38.8968 41.9275 43.6328 37.3252C43.6352 37.3228 43.6375 37.3228 43.6375 37.3228L51.5356 29.4623L55.2559 25.7607C55.901 25.1203 56.6071 24.5386 57.3858 24.0695C59.0654 23.0631 60.7613 22.6526 61.9553 23.8466L46.185 39.5395C46.185 39.5395 46.185 39.5395 46.1803 39.5419C40.5318 45.1904 29.4974 43.5531 24.4612 37.8577L24.4635 37.86Z" fill="url(#paint16_linear_258_98)" fill-opacity="0.6"/>
<path style="mix-blend-mode:color-burn" opacity="0.5" d="M47.4563 38.2753L46.1873 39.5397C46.1873 39.5397 46.1873 39.5397 46.1826 39.542C40.2831 45.4275 27.5739 43.6236 23.1147 35.9812C26.6708 40.5976 39.8655 46.0725 47.4563 38.273L47.4563 38.2753Z" fill="url(#paint17_linear_258_98)" fill-opacity="0.4"/>
</g>
<defs>
<linearGradient id="paint0_linear_258_98" x1="29.924" y1="22.1604" x2="29.9236" y2="1.35846" gradientUnits="userSpaceOnUse">
<stop stop-color="#E240B4"/>
<stop offset="1" stop-color="#5227CA"/>
</linearGradient>
<linearGradient id="paint1_linear_258_98" x1="29.924" y1="22.1604" x2="29.9236" y2="1.35846" gradientUnits="userSpaceOnUse">
<stop stop-color="#189394"/>
<stop offset="1" stop-color="#095B55"/>
</linearGradient>
<linearGradient id="paint2_linear_258_98" x1="38.1705" y1="24.9362" x2="38.1353" y2="24.9713" gradientUnits="userSpaceOnUse">
<stop stop-color="#E74B1D"/>
<stop offset="1" stop-color="#FFBF00"/>
</linearGradient>
<linearGradient id="paint3_linear_258_98" x1="46.916" y1="12.9718" x2="-2.19236" y2="17.2092" gradientUnits="userSpaceOnUse">
<stop stop-color="#E240B4"/>
<stop offset="0.99" stop-color="#4227CA"/>
</linearGradient>
<linearGradient id="paint4_linear_258_98" x1="27.2105" y1="32.2216" x2="35.186" y2="-1.43962" gradientUnits="userSpaceOnUse">
<stop stop-color="#2EB5B0"/>
<stop offset="0.48" stop-color="#189893"/>
<stop offset="1" stop-color="#15938E"/>
</linearGradient>
<linearGradient id="paint5_linear_258_98" x1="30.1298" y1="7.38963" x2="7.05717" y2="30.4036" gradientUnits="userSpaceOnUse">
<stop stop-color="#056E68"/>
<stop offset="0.146673" stop-color="#04827D"/>
<stop offset="1" stop-color="#12AA9D"/>
</linearGradient>
<linearGradient id="paint6_linear_258_98" x1="24.7475" y1="7.77017" x2="7.2623" y2="28.5566" gradientUnits="userSpaceOnUse">
<stop stop-color="#04817D"/>
<stop offset="1" stop-color="#2EC0BB"/>
</linearGradient>
<linearGradient id="paint7_linear_258_98" x1="23.5581" y1="21.9239" x2="13.0703" y2="11.4338" gradientUnits="userSpaceOnUse">
<stop stop-color="#017572"/>
<stop offset="0.24" stop-color="#017572"/>
<stop offset="0.54" stop-color="#017572"/>
<stop offset="0.85" stop-color="#017572"/>
<stop offset="1" stop-color="#017572"/>
</linearGradient>
<linearGradient id="paint8_linear_258_98" x1="32.2608" y1="16.1603" x2="20.3586" y2="4.25811" gradientUnits="userSpaceOnUse">
<stop stop-color="#044C51"/>
<stop offset="0.24" stop-color="#0A4C4A"/>
<stop offset="0.54" stop-color="#094543"/>
<stop offset="0.85" stop-color="#06433E"/>
<stop offset="1" stop-color="#044040"/>
</linearGradient>
<linearGradient id="paint9_linear_258_98" x1="32.0289" y1="25.8198" x2="32.0293" y2="46.6218" gradientUnits="userSpaceOnUse">
<stop stop-color="#E240B4"/>
<stop offset="1" stop-color="#5227CA"/>
</linearGradient>
<linearGradient id="paint10_linear_258_98" x1="32.0289" y1="25.8198" x2="32.0293" y2="46.6218" gradientUnits="userSpaceOnUse">
<stop stop-color="#189394"/>
<stop offset="1" stop-color="#095B55"/>
</linearGradient>
<linearGradient id="paint11_linear_258_98" x1="23.7824" y1="23.044" x2="23.8176" y2="23.0089" gradientUnits="userSpaceOnUse">
<stop stop-color="#E74B1D"/>
<stop offset="1" stop-color="#FFBF00"/>
</linearGradient>
<linearGradient id="paint12_linear_258_98" x1="15.0368" y1="35.0084" x2="64.1452" y2="30.771" gradientUnits="userSpaceOnUse">
<stop stop-color="#E240B4"/>
<stop offset="0.99" stop-color="#4227CA"/>
</linearGradient>
<linearGradient id="paint13_linear_258_98" x1="34.7424" y1="15.7586" x2="26.7669" y2="49.4199" gradientUnits="userSpaceOnUse">
<stop stop-color="#2EB5B0"/>
<stop offset="0.48" stop-color="#189893"/>
<stop offset="1" stop-color="#15938E"/>
</linearGradient>
<linearGradient id="paint14_linear_258_98" x1="31.8231" y1="40.5906" x2="54.8957" y2="17.5767" gradientUnits="userSpaceOnUse">
<stop stop-color="#056E68"/>
<stop offset="0.146673" stop-color="#04827D"/>
<stop offset="1" stop-color="#12AA9D"/>
</linearGradient>
<linearGradient id="paint15_linear_258_98" x1="37.2054" y1="40.2101" x2="54.6906" y2="19.4237" gradientUnits="userSpaceOnUse">
<stop stop-color="#04817D"/>
<stop offset="1" stop-color="#2EC0BB"/>
</linearGradient>
<linearGradient id="paint16_linear_258_98" x1="38.3948" y1="26.0563" x2="48.8826" y2="36.5464" gradientUnits="userSpaceOnUse">
<stop stop-color="#017572"/>
<stop offset="0.24" stop-color="#017572"/>
<stop offset="0.54" stop-color="#017572"/>
<stop offset="0.85" stop-color="#017572"/>
<stop offset="1" stop-color="#017572"/>
</linearGradient>
<linearGradient id="paint17_linear_258_98" x1="29.6921" y1="31.8199" x2="41.5943" y2="43.7221" gradientUnits="userSpaceOnUse">
<stop stop-color="#044C51"/>
<stop offset="0.24" stop-color="#0A4C4A"/>
<stop offset="0.54" stop-color="#094543"/>
<stop offset="0.85" stop-color="#06433E"/>
<stop offset="1" stop-color="#044040"/>
</linearGradient>
<clipPath id="clip0_258_98">
<rect width="62" height="47.8294" fill="white" transform="translate(0 0.0852051)"/>
</clipPath>
</defs>
</svg>
